<?xml version="1.0" encoding="UTF-8"?>
<svg id="White" xmlns="http://www.w3.org/2000/svg" viewBox="0 0 1366 1080">
  <defs>
    <style>
      .cls-1 {
        fill: #fff;
      }

      .cls-2 {
        fill: #b52d3f;
      }
    </style>
  </defs>
  <g id="Layer_2_copy" data-name="Layer 2 copy">
    <path class="cls-2" d="M669.03,939.17c.64.02,1.28.03,1.92.03-.49,0-.97,0-1.45,0h-.23c-.16,0-.33,0-.49,0-.41,0-.83,0-1.24,0-.37,0-.73,0-1.1-.02-.33,0-.67-.02-1.01-.03-.63,0-1.26-.03-1.88-.05-.32,0-.63-.02-.94-.04-.84-.03-1.66-.06-2.49-.11-.49-.02-.97-.05-1.46-.09-.9-.04-1.79-.1-2.68-.16-.14,0-.29,0-.42-.03-1.03-.07-2.05-.15-3.07-.23-.31-.02-.61-.05-.91-.08-.03,0-.05,0-.08,0-.41-.04-.84-.08-1.25-.12-.41-.04-.83-.08-1.24-.13-.13,0-.28-.02-.41-.04-.22-.02-.43-.04-.65-.07-.66-.07-1.32-.14-1.98-.22-.63-.07-1.25-.14-1.88-.21-.99-.13-1.98-.25-2.97-.4-.63-.09-1.25-.17-1.88-.27-.33-.04-.67-.1-1-.15-.04,0-.1,0-.14-.02-.11-.02-.21-.03-.31-.05-.04,0-.09-.02-.14-.02-.43-.08-.87-.15-1.3-.21-.11-.02-.21-.03-.32-.05-.04,0-.07,0-.11-.02-.95-.15-1.91-.32-2.86-.48-1.13-.19-2.26-.41-3.38-.62-.04,0-.09-.02-.14-.03-.97-.18-1.94-.38-2.91-.58-.58-.12-1.16-.24-1.74-.37-.56-.12-1.12-.24-1.67-.37-.59-.13-1.17-.26-1.76-.41-.55-.12-1.1-.25-1.64-.39-.1-.02-.19-.04-.29-.07-.47-.11-.94-.22-1.4-.34-.04,0-.1-.03-.14-.04-.77-.19-1.54-.39-2.3-.59-.28-.07-.56-.15-.84-.21-1.14-.3-2.29-.62-3.43-.94-1.2-.34-2.4-.69-3.6-1.04-.77-.23-1.52-.46-2.29-.71-.32-.1-.65-.19-.97-.3-.52-.16-1.04-.33-1.56-.5-.13-.04-.26-.09-.4-.14-.07-.02-.14-.04-.22-.07-.56-.18-1.12-.36-1.68-.55-.67-.22-1.36-.45-2.03-.7-.33-.11-.66-.22-.99-.34-.41-.15-.83-.29-1.24-.44-.95-.33-1.9-.68-2.84-1.03-1-.37-1.99-.74-2.98-1.13-.3-.11-.58-.22-.88-.34-.05-.02-.12-.05-.17-.07-.02,0-.04,0-.05-.02-.05-.02-.11-.04-.16-.07-.36-.15-.73-.29-1.09-.44-.49-.19-.98-.4-1.47-.59-.13-.06-.27-.11-.4-.16-.04-.02-.09-.04-.13-.06-.58-.23-1.14-.47-1.71-.72-.65-.26-1.31-.54-1.95-.82-.04-.02-.08-.03-.12-.05-2.01-.87-4.01-1.76-6-2.69-.05-.03-.12-.05-.17-.08-.69-.33-1.39-.66-2.08-.99-.54-.25-1.07-.51-1.61-.77h-.02c-1.25-.61-2.5-1.24-3.75-1.87-.03,0-.04-.03-.07-.04-.04-.02-.07-.04-.11-.06-.77-.39-1.55-.78-2.31-1.19-.08-.04-.15-.08-.23-.12-.14-.07-.27-.14-.4-.21-.77-.4-1.53-.8-2.29-1.22-.67-.36-1.35-.73-2.02-1.09-.18-.1-.37-.2-.55-.31-.11-.06-.21-.12-.31-.17-.04-.02-.09-.05-.14-.07-.69-.39-1.39-.77-2.08-1.17-.09-.05-.19-.11-.28-.15-.77-.44-1.55-.88-2.31-1.33-1.03-.6-2.06-1.21-3.09-1.83-.51-.31-1.03-.62-1.53-.94-1.12-.67-2.23-1.36-3.34-2.07-.02,0-.04-.03-.06-.04-.05-.04-.11-.07-.16-.11-.49-.3-.96-.61-1.45-.92-1.9-1.22-3.79-2.47-5.66-3.73-.7-.48-1.41-.97-2.11-1.46-.39-.25-.77-.52-1.15-.8-.12-.09-.24-.16-.36-.25-.66-.45-1.31-.92-1.97-1.39-.95-.68-1.9-1.36-2.84-2.05-.94-.7-1.87-1.38-2.81-2.09-.02,0-.04-.03-.05-.05-.1-.07-.19-.15-.29-.21-.82-.62-1.65-1.25-2.46-1.89-.66-.5-1.31-1.02-1.97-1.54-.42-.33-.84-.66-1.26-1-.77-.61-1.54-1.23-2.31-1.86-.91-.74-1.83-1.49-2.74-2.25-.9-.74-1.8-1.51-2.69-2.27,0,0-.03,0-.04-.03-.06-.06-.13-.11-.19-.16-.57-.47-1.12-.96-1.68-1.45-.16-.14-.32-.28-.49-.43-.16-.13-.32-.26-.48-.41-.7-.61-1.39-1.23-2.09-1.85-.25-.22-.51-.44-.76-.68-.79-.71-1.57-1.42-2.35-2.14-.88-.8-1.76-1.62-2.64-2.45-3.51-3.28-6.96-6.67-10.36-10.17-.85-.87-1.7-1.75-2.54-2.63-.85-.89-1.68-1.78-2.52-2.68-.84-.89-1.66-1.8-2.49-2.71-.66-.72-1.31-1.44-1.97-2.18-.32-.35-.62-.69-.92-1.03-.68-.76-1.36-1.54-2.03-2.31-.81-.93-1.62-1.87-2.42-2.8,0,0,0,0,0,0-.93-1.08-1.84-2.18-2.75-3.27-.92-1.09-1.82-2.2-2.73-3.32-.9-1.11-1.8-2.22-2.69-3.36-.89-1.13-1.78-2.26-2.66-3.4-.7-.91-1.4-1.82-2.1-2.74-.38-.48-.75-.98-1.11-1.46-.61-.81-1.22-1.63-1.82-2.46-.15-.19-.3-.39-.42-.57-.11-.15-.22-.3-.32-.44-.34-.46-.68-.92-1.02-1.39-.3-.41-.59-.81-.88-1.22-.11-.14-.2-.27-.29-.4-.8-1.12-1.6-2.24-2.39-3.37-.71-1.02-1.42-2.03-2.12-3.06-.26-.38-.52-.75-.77-1.13-.54-.79-1.09-1.6-1.63-2.41-.27-.41-.54-.81-.81-1.22-.59-.89-1.19-1.79-1.78-2.7-.18-.27-.35-.54-.52-.8-.59-.9-1.17-1.8-1.75-2.71-.23-.36-.46-.72-.67-1.07-.14-.23-.3-.45-.43-.69-.59-.91-1.15-1.82-1.72-2.74-.59-.96-1.19-1.91-1.77-2.88-.29-.47-.58-.94-.86-1.41-.59-.98-1.17-1.95-1.75-2.94-.14-.23-.28-.46-.41-.7-.45-.76-.89-1.52-1.33-2.29-.43-.73-.86-1.46-1.27-2.19-.66-1.14-1.3-2.28-1.94-3.42-.54-.96-1.08-1.92-1.61-2.9-.03-.05-.05-.09-.07-.14-.18-.32-.36-.66-.53-.98-.67-1.23-1.34-2.46-2-3.69-.72-1.34-1.43-2.7-2.14-4.06-.7-1.35-1.4-2.73-2.1-4.09-.58-1.15-1.15-2.3-1.73-3.45-.55-1.11-1.09-2.22-1.64-3.35-.06-.14-.14-.28-.2-.42-.46-.95-.91-1.9-1.36-2.85-.53-1.11-1.05-2.22-1.57-3.34-.52-1.11-1.04-2.23-1.55-3.36-.65-1.42-1.29-2.84-1.93-4.28-.63-1.43-1.26-2.86-1.87-4.31-.44-1.01-.86-2.01-1.29-3.03-.34-.81-.68-1.62-1.03-2.44-1-2.42-1.99-4.84-2.95-7.3-.58-1.45-1.14-2.91-1.7-4.37-.31-.79-.61-1.6-.91-2.4-.32-.84-.64-1.68-.95-2.53-.39-1.04-.77-2.08-1.14-3.12-.35-.96-.7-1.92-1.04-2.89-.03-.08-.05-.16-.09-.24-.48-1.35-.95-2.71-1.42-4.07-.47-1.36-.94-2.73-1.39-4.1-.32-.95-.64-1.9-.94-2.84-.49-1.48-.97-2.96-1.44-4.45-.49-1.51-.95-3.02-1.42-4.54-.37-1.18-.73-2.36-1.08-3.55-.58-1.91-1.13-3.83-1.69-5.76-.27-.95-.54-1.9-.8-2.84-.31-1.09-.61-2.19-.91-3.3-.31-1.09-.59-2.19-.89-3.31-.59-2.2-1.16-4.43-1.72-6.65-.28-1.11-.56-2.23-.83-3.35-.22-.92-.45-1.84-.67-2.76-.11-.46-.22-.94-.33-1.41-.17-.73-.35-1.47-.51-2.2-.17-.73-.34-1.46-.5-2.2-.36-1.59-.71-3.18-1.06-4.79,0-.05-.02-.11-.04-.15-.37-1.74-.74-3.48-1.1-5.24-.23-1.12-.47-2.25-.68-3.39-.03-.12-.05-.23-.07-.35-.08-.44-.17-.86-.25-1.3-.31-1.57-.6-3.14-.9-4.72,0,0,0-.03,0-.04,0-.02,0-.04,0-.06-.26-1.37-.5-2.75-.75-4.13-.12-.65-.22-1.3-.34-1.93-.12-.65-.22-1.3-.33-1.94-.22-1.3-.43-2.6-.64-3.9-.04-.21-.08-.43-.11-.64-.15-.91-.3-1.83-.44-2.75-.41-2.59-.79-5.19-1.15-7.8-.15-1.1-.31-2.2-.45-3.31-.11-.76-.22-1.53-.31-2.29-.03-.2-.05-.4-.08-.6-.14-1.08-.28-2.18-.41-3.27-.02-.17-.04-.35-.06-.52-.1-.84-.2-1.68-.3-2.52-.1-.82-.2-1.64-.29-2.47-.13-1.16-.26-2.32-.38-3.48-.04-.26-.06-.53-.09-.79-.11-1.09-.22-2.19-.32-3.28-.09-.81-.16-1.64-.24-2.47,0-.13-.03-.24-.04-.37-.04-.49-.09-.98-.13-1.46-.09-1.02-.18-2.04-.27-3.06-.05-.68-.12-1.36-.17-2.05,0-.1,0-.18-.02-.28-.07-.81-.14-1.61-.2-2.43-.07-.95-.14-1.9-.21-2.84-.05-.73-.11-1.48-.15-2.22-.06-.89-.12-1.77-.17-2.66-.07-1.16-.14-2.32-.21-3.49-.03-.37-.04-.73-.06-1.09-.07-1.28-.14-2.57-.19-3.86-.03-.39-.04-.78-.06-1.17-.02-.34-.03-.68-.04-1.02-.05-1.19-.1-2.38-.14-3.57,0-.08,0-.15,0-.23-.04-1-.07-1.98-.1-2.97,0-.17,0-.35-.02-.52-.03-.84-.05-1.69-.07-2.54-.04-1.64-.08-3.3-.11-4.94-.06-3.31-.09-6.61-.09-9.94,0-7.01.13-13.98.39-20.91.06-1.73.13-3.45.22-5.18,0-.29.03-.59.04-.88.06-1.36.14-2.73.22-4.09,0-.07,0-.13,0-.19.02-.43.04-.86.07-1.29v-.05c.05-.93.11-1.85.17-2.77,0-.15.02-.29.03-.44,0-.2.03-.42.04-.62.08-1.22.16-2.44.25-3.65.04-.73.1-1.47.15-2.2.13-1.59.25-3.16.38-4.75.18-2.1.37-4.19.57-6.28.11-1.18.22-2.36.34-3.54.11-1.04.22-2.09.33-3.12.07-.66.14-1.32.22-1.97.07-.66.15-1.32.22-1.97.08-.72.16-1.42.24-2.13.04-.3.07-.59.11-.89.09-.72.17-1.44.27-2.16.05-.47.12-.95.17-1.42.05-.43.11-.85.17-1.28,0-.06,0-.12.02-.16.14-1.04.27-2.08.41-3.11,0-.12.03-.24.04-.36.02-.15.04-.3.06-.44.09-.71.19-1.4.3-2.11.22-1.64.47-3.28.72-4.92,0-.05,0-.1.02-.15,0-.03,0-.06.02-.1,0,0,0-.03,0-.05.02-.17.04-.34.07-.51.04-.31.09-.63.14-.94.14-.97.3-1.93.45-2.91.02-.13.05-.26.06-.39.21-1.29.41-2.57.64-3.86.14-.81.27-1.62.41-2.44.13-.82.28-1.64.43-2.47.17-.99.35-1.96.53-2.94.05-.26.09-.52.14-.77.12-.68.24-1.34.37-2.02,0-.06.03-.12.04-.17.24-1.28.49-2.55.74-3.83.04-.23.09-.45.13-.68.19-.97.39-1.93.59-2.9.08-.43.17-.84.25-1.26.03-.11.04-.21.07-.33.31-1.53.64-3.05.96-4.56.18-.81.35-1.62.54-2.44.16-.75.33-1.51.5-2.26.02-.1.04-.19.06-.28.29-1.27.58-2.52.87-3.78,0-.05.02-.11.04-.15.04-.18.08-.37.13-.54.38-1.59.76-3.16,1.14-4.74.15-.63.31-1.26.47-1.89.15-.62.31-1.23.46-1.84.07-.27.14-.53.21-.8.09-.34.17-.69.26-1.02.13-.47.25-.96.38-1.44.13-.47.25-.95.38-1.43.16-.63.32-1.25.49-1.88.15-.58.32-1.15.47-1.73.08-.3.16-.61.25-.91,0-.04.02-.09.04-.13,0-.06.03-.12.04-.17.02-.07.04-.15.05-.21.03-.11.05-.2.08-.31.03-.1.05-.19.08-.28.13-.44.25-.89.38-1.33.16-.61.33-1.21.5-1.81.34-1.21.69-2.42,1.04-3.63.06-.23.14-.45.2-.69.05-.19.11-.38.17-.57.17-.59.34-1.18.52-1.77.07-.24.14-.47.22-.71.03-.12.06-.23.1-.35.19-.63.38-1.26.58-1.89.14-.47.29-.95.44-1.43.12-.41.24-.82.38-1.23.18-.59.36-1.17.55-1.76.13-.4.25-.79.38-1.19.04-.11.06-.22.1-.33,0-.03.03-.07.04-.1.03-.07.04-.14.07-.21.04-.15.1-.31.14-.46.04-.15.1-.31.15-.46.18-.57.36-1.14.55-1.7.2-.62.4-1.25.61-1.87.31-.94.62-1.88.94-2.8.14-.45.3-.91.46-1.36.02-.06.04-.12.05-.16.29-.86.59-1.71.88-2.56.02-.06.04-.12.06-.17.23-.7.48-1.39.73-2.09.04-.12.08-.22.12-.34.34-.98.69-1.95,1.04-2.92.04-.12.07-.22.12-.34.27-.75.54-1.5.82-2.24.04-.14.1-.26.15-.4.36-.99.73-1.97,1.1-2.96.41-1.11.84-2.22,1.26-3.34.16-.42.32-.83.49-1.25.22-.6.46-1.2.69-1.79.29-.73.58-1.45.86-2.18.04-.11.09-.22.14-.33.22-.54.43-1.07.65-1.61.08-.23.18-.46.28-.7,0-.02,0-.04.02-.05.02-.07.04-.14.07-.19.04-.13.1-.25.15-.37.31-.76.62-1.54.94-2.3.11-.29.22-.57.35-.85.06-.16.13-.32.2-.48.32-.76.64-1.53.96-2.29.09-.22.19-.44.28-.66.41-.95.81-1.9,1.22-2.84.31-.72.61-1.42.93-2.13.35-.81.71-1.61,1.07-2.43.37-.82.74-1.63,1.11-2.46.18-.41.36-.8.54-1.2.18-.39.35-.77.53-1.16.38-.82.76-1.63,1.14-2.46.14-.33.3-.65.45-.97.15-.34.31-.67.47-1,.13-.26.24-.51.37-.77.04-.1.09-.18.14-.28,0,0,0,0,0,0,.39-.83.78-1.65,1.19-2.48,0-.03.02-.05.04-.08.04-.09.07-.17.12-.25,0-.02.02-.03.03-.05.59-1.24,1.21-2.48,1.82-3.71.03-.06.05-.12.08-.17.28-.54.55-1.09.83-1.64.04-.1.09-.18.13-.28.05-.09.09-.17.14-.27,0,0,0-.02,0-.03.07-.15.14-.28.22-.42,0-.03.03-.06.04-.09.02-.03.04-.07.05-.1.1-.2.2-.4.31-.6,0,0,0-.03.02-.04.02-.04.05-.09.06-.13.41-.8.82-1.61,1.23-2.41.2-.39.4-.77.59-1.16.15-.29.31-.58.46-.87.31-.59.62-1.18.93-1.77.44-.82.88-1.65,1.32-2.48.18-.33.35-.66.53-.99.15-.29.32-.58.47-.86.26-.48.53-.98.8-1.46.04-.07.07-.14.12-.2.04-.09.09-.18.14-.27.09-.18.2-.36.3-.54.06-.12.13-.23.19-.35.04-.06.07-.13.11-.19.03-.04.04-.09.07-.13.05-.11.12-.2.18-.31,0-.03.04-.07.05-.1.02-.04.04-.08.06-.12,0-.03.03-.05.04-.08.09-.16.18-.33.27-.48.94-1.69,1.9-3.37,2.87-5.05.29-.52.59-1.03.9-1.56.2-.35.41-.7.61-1.04.34-.59.69-1.19,1.04-1.78.65-1.1,1.31-2.19,1.97-3.28.31-.51.62-1.02.94-1.54.34-.56.69-1.13,1.04-1.69.29-.46.58-.94.87-1.4.47-.75.94-1.51,1.42-2.26.04-.08.1-.16.15-.24.44-.7.88-1.39,1.33-2.08.22-.36.46-.72.69-1.07,0,0,0,0,0-.02.73-1.12,1.46-2.23,2.2-3.35.04-.07.08-.13.13-.19.48-.73.96-1.46,1.46-2.19.08-.13.16-.24.25-.37.13-.19.26-.39.39-.58.42-.62.85-1.25,1.29-1.88.51-.76,1.04-1.52,1.57-2.27.56-.8,1.12-1.61,1.69-2.41.06-.1.13-.18.19-.27.25-.35.5-.7.76-1.04.06-.1.13-.18.2-.28.39-.54.77-1.08,1.17-1.62.39-.54.78-1.09,1.19-1.63.26-.36.52-.72.79-1.07.16-.22.32-.44.5-.67.13-.18.26-.37.4-.55.14-.18.27-.36.4-.53.35-.47.7-.94,1.06-1.4.16-.22.32-.44.51-.68.07-.1.14-.19.22-.29.12-.17.24-.34.38-.5.54-.72,1.08-1.42,1.64-2.13.03-.05.06-.1.11-.15.7-.9,1.39-1.79,2.1-2.68.18-.23.36-.46.55-.7.52-.67,1.05-1.32,1.58-1.97.16-.21.33-.43.51-.64.73-.91,1.48-1.82,2.22-2.72.16-.2.33-.41.5-.61.37-.45.75-.9,1.12-1.35.12-.14.22-.27.33-.4.07-.09.14-.16.22-.25.56-.67,1.12-1.33,1.69-1.99.08-.12.18-.22.28-.33.08-.1.15-.18.24-.28.24-.29.49-.59.75-.88.03-.03.05-.07.09-.1.04-.06.1-.12.15-.17.11-.13.21-.24.32-.37.02-.02.04-.05.05-.07.09-.1.17-.19.25-.29.07-.09.14-.16.22-.25.14-.17.3-.36.46-.53.17-.2.35-.41.53-.6.18-.2.36-.41.54-.61.77-.88,1.56-1.75,2.34-2.62.26-.29.53-.59.8-.88l1.35-1.48c.22-.23.43-.46.65-.7.4-.44.81-.88,1.21-1.31.19-.2.37-.41.56-.6.28-.3.55-.59.83-.87.21-.23.42-.45.63-.67.67-.7,1.33-1.39,2-2.08.11-.12.22-.22.32-.33.67-.71,1.36-1.39,2.04-2.09.42-.43.85-.85,1.28-1.28.22-.23.46-.45.68-.69.33-.33.66-.66.99-.98.37-.36.74-.73,1.12-1.08.67-.67,1.35-1.32,2.03-1.96.22-.22.46-.44.69-.67.35-.34.69-.67,1.04-.99.18-.16.35-.33.53-.5.08-.07.16-.15.23-.21.51-.48,1.03-.97,1.56-1.45.51-.47,1.03-.95,1.54-1.41.39-.36.78-.72,1.18-1.07.22-.2.45-.41.67-.6.1-.1.21-.19.31-.28.92-.83,1.84-1.64,2.78-2.46.79-.7,1.59-1.38,2.39-2.07.14-.13.27-.24.41-.35.22-.18.43-.37.65-.54.72-.62,1.45-1.23,2.18-1.83.94-.78,1.88-1.55,2.83-2.31.03-.04.06-.06.09-.08.77-.63,1.56-1.26,2.34-1.88.72-.57,1.44-1.13,2.17-1.69.61-.48,1.23-.96,1.85-1.42.04-.03.07-.06.11-.09.07-.06.14-.11.22-.16.4-.31.8-.61,1.2-.92.06-.05.12-.09.18-.13.17-.14.35-.26.52-.39.18-.15.36-.28.54-.41.05-.05.12-.1.18-.14.47-.36.94-.71,1.41-1.04.26-.19.53-.39.79-.57.12-.1.23-.18.36-.26.31-.23.63-.46.94-.69.31-.22.61-.44.92-.66.05-.03.1-.07.14-.1.02,0,.04-.03.05-.04.12-.09.23-.17.35-.25.3-.21.58-.43.88-.63.54-.38,1.07-.75,1.61-1.12.24-.17.49-.34.73-.5.59-.41,1.19-.81,1.79-1.22.24-.16.49-.33.73-.49.13-.09.24-.16.38-.25.71-.47,1.43-.95,2.15-1.42.37-.25.74-.49,1.11-.72.04-.03.09-.06.14-.09.02,0,.04-.03.06-.04.05-.03.08-.06.13-.09.48-.32.96-.63,1.44-.93.22-.15.43-.28.66-.42.11-.08.22-.15.34-.21.79-.5,1.58-1,2.38-1.49.12-.08.24-.15.36-.22.53-.33,1.07-.66,1.61-.98.3-.18.59-.36.9-.54.5-.31,1.01-.61,1.52-.9.59-.35,1.19-.7,1.78-1.04.27-.16.54-.32.81-.46,0,0,0,0,0,0,.04,0,.06-.03.1-.06.04-.02.06-.04.09-.05.04-.02.06-.04.1-.06.04-.03.08-.05.12-.07,0,0,.03-.02.04-.02l.05-.03s0,0,.02,0c.03-.02.05-.03.08-.05.04-.03.08-.05.13-.07.41-.25.83-.48,1.24-.72.19-.1.38-.2.56-.31.06-.03.13-.06.19-.1.02,0,.03-.02.04-.03.3-.17.6-.34.9-.49.59-.33,1.18-.65,1.77-.98.51-.28,1.03-.56,1.56-.83.56-.3,1.12-.6,1.69-.9.15-.08.3-.15.45-.23.87-.45,1.75-.9,2.62-1.34.14-.07.29-.15.42-.21.76-.39,1.51-.76,2.28-1.13.19-.09.38-.18.58-.28.14-.07.28-.14.41-.2.22-.12.46-.22.69-.33.67-.33,1.33-.65,2.01-.96.67-.32,1.34-.63,2.02-.94.55-.25,1.1-.5,1.64-.74.13-.07.25-.13.39-.17.31-.14.6-.27.9-.4.59-.27,1.18-.53,1.77-.78.03,0,.05-.02.07-.03.03,0,.05-.02.08-.03.72-.32,1.44-.63,2.16-.93.16-.07.32-.14.49-.2h0c.78-.34,1.57-.66,2.38-.98.41-.17.83-.34,1.24-.5.18-.08.37-.15.56-.22.55-.21,1.11-.44,1.67-.65.19-.08.39-.15.58-.22.43-.17.86-.34,1.31-.49.22-.1.46-.18.68-.26.12-.05.23-.1.35-.14.4-.15.82-.3,1.22-.44.12-.05.23-.09.35-.13.31-.13.61-.23.92-.34.49-.17.98-.35,1.47-.52.14-.06.3-.11.45-.15.09-.03.18-.06.27-.09.05-.03.12-.05.18-.07.56-.19,1.12-.39,1.68-.57.17-.07.33-.13.5-.17.28-.1.55-.19.83-.28.1-.03.19-.06.29-.09.38-.14.76-.26,1.14-.38.17-.06.34-.12.51-.16.41-.15.84-.28,1.25-.41.05-.02.11-.03.16-.05.08-.03.16-.05.24-.07.22-.08.44-.15.67-.21.75-.23,1.48-.46,2.23-.68.14-.04.29-.09.43-.13.95-.29,1.91-.56,2.86-.83.56-.15,1.12-.31,1.68-.46.08-.02.16-.04.24-.07.22-.06.43-.11.65-.16.35-.1.7-.19,1.04-.29.19-.05.38-.1.57-.15.19-.05.39-.11.58-.15.76-.2,1.54-.41,2.32-.59,1.13-.28,2.28-.55,3.41-.81.13-.03.26-.06.39-.09.65-.15,1.3-.29,1.94-.44.39-.09.77-.17,1.16-.25.08-.02.17-.04.26-.06.37-.08.74-.15,1.12-.23.57-.12,1.13-.23,1.7-.34.14-.04.3-.07.45-.09.05,0,.11-.02.16-.03s.12-.03.17-.04c.11-.03.22-.05.32-.07.08-.02.15-.03.23-.04.21-.04.41-.09.62-.12.11-.03.22-.05.32-.06.1-.02.21-.04.31-.06s.21-.04.31-.07c.17-.03.34-.06.51-.1.28-.05.56-.1.84-.15.02,0,.04,0,.05,0,.28-.05.56-.1.84-.15.29-.06.58-.11.88-.15.04,0,.1-.02.14-.03.22-.05.46-.09.69-.12.23-.04.47-.08.7-.12.03,0,.05,0,.08,0h.02s.03,0,.04,0h0s0,0,0,0c.04,0,.08-.02.12-.02h.03s.05,0,.08,0c.05-.02.11-.02.16-.03.57-.1,1.13-.18,1.7-.26.49-.09.99-.15,1.48-.22.56-.09,1.12-.16,1.67-.24.32-.05.64-.09.96-.13.05,0,.1-.02.15-.02.04,0,.08,0,.12,0,.08,0,.17-.03.26-.04.23-.04.47-.07.7-.1.57-.07,1.12-.14,1.68-.2.23-.03.47-.06.7-.08.02,0,.04,0,.06,0,.44-.06.88-.11,1.32-.15.31-.03.61-.07.92-.1h.04c.22-.03.42-.06.64-.07.22-.03.43-.05.65-.07.24-.03.49-.05.74-.07.08,0,.15-.02.23-.02.13-.02.26-.03.4-.04.6-.07,1.21-.12,1.82-.16.05,0,.11,0,.17,0,.55-.05,1.1-.09,1.65-.13.45-.04.91-.07,1.36-.11.11,0,.21-.02.32-.02h.06s.07,0,.11,0c.13-.02.25-.02.38-.02.08,0,.16,0,.24-.02.48-.04.96-.06,1.45-.09.09,0,.19-.02.28-.02.29-.02.57-.04.86-.05.11,0,.21,0,.31,0,1.08-.06,2.16-.11,3.25-.15.1,0,.2,0,.31,0,.32,0,.65-.02.98-.03.3,0,.6-.02.91-.02.32-.02.65-.03.98-.03h.21s.04,0,.07,0c.03,0,.05,0,.08,0h.27c.09,0,.19,0,.29,0,.26,0,.52,0,.78,0h.19c.86,0,1.73-.02,2.6-.02-.53,0-1.07,0-1.6.02-.4,0-.78.02-1.18.04-.52.02-1.04.04-1.57.08-.72.04-1.44.1-2.16.16-.72.07-1.44.15-2.16.23-.67.08-1.35.17-2.02.27-.06,0-.14.02-.2.03-.69.11-1.38.22-2.07.36-.56.1-1.12.21-1.68.33-.3.06-.59.13-.89.19-.51.11-1.03.22-1.54.35-.15.04-.31.08-.47.12-.4.1-.79.2-1.19.31-.32.09-.65.17-.97.27-.72.19-1.45.42-2.17.65-.44.13-.89.27-1.33.43-.31.1-.63.2-.94.33,0,0-.02,0-.02,0-.08.02-.15.05-.22.08-.51.17-1.03.36-1.53.55-1.67.62-3.33,1.3-4.98,2.04-.15.07-.31.14-.46.2-.38.17-.76.35-1.13.53-.23.11-.47.21-.7.34-.47.21-.93.44-1.39.69-.57.27-1.12.56-1.69.87-1.78.94-3.56,1.95-5.33,3.05-.4.23-.78.47-1.17.73-.79.49-1.58,1.01-2.37,1.54-.44.29-.87.59-1.31.89-1.67,1.16-3.34,2.38-4.99,3.66-.54.41-1.09.83-1.63,1.28-.55.44-1.09.88-1.64,1.33-.55.44-1.09.91-1.63,1.37-1.21,1.02-2.4,2.09-3.59,3.18-.6.55-1.21,1.11-1.8,1.68-.02.02-.04.03-.05.04-.63.61-1.26,1.21-1.88,1.83-.58.56-1.14,1.13-1.71,1.71-1.47,1.49-2.92,3.04-4.37,4.62-.44.49-.89.99-1.33,1.49-.44.49-.88,1-1.31,1.5-.46.51-.9,1.03-1.35,1.56,0,.02-.03.04-.04.06-.5.59-1.01,1.19-1.5,1.8-1.53,1.84-3.04,3.74-4.55,5.7-.48.62-.94,1.24-1.41,1.87-.31.41-.62.82-.92,1.24-.43.57-.85,1.14-1.27,1.71-.9,1.25-1.8,2.51-2.69,3.8-.85,1.21-1.68,2.45-2.52,3.69-6.52,9.75-12.74,20.54-18.62,32.28-.41.83-.84,1.67-1.24,2.51-2.41,4.9-4.76,9.96-7.05,15.17-.4.88-.78,1.77-1.16,2.66-1.63,3.77-3.22,7.62-4.79,11.55-.39.98-.78,1.96-1.16,2.96-.39.99-.77,1.98-1.15,2.98-.39,1-.76,2-1.14,3.02-.38,1.01-.76,2.02-1.12,3.04-.75,2.03-1.49,4.09-2.22,6.17-.37,1.03-.73,2.08-1.09,3.12-.33.94-.66,1.89-.98,2.84-.85,2.51-1.68,5.05-2.51,7.6-.29.89-.58,1.78-.86,2.67-1.35,4.24-2.66,8.54-3.93,12.9-.32,1.08-.64,2.17-.95,3.26-.35,1.22-.7,2.45-1.04,3.67-.38,1.34-.76,2.71-1.12,4.07-.22.84-.46,1.68-.68,2.52-.25.95-.51,1.91-.76,2.87-1.27,4.79-2.48,9.64-3.66,14.55-.29,1.18-.57,2.37-.85,3.57-.14.61-.29,1.23-.43,1.85-.31,1.34-.62,2.7-.93,4.06-.91,4.05-1.79,8.13-2.65,12.26-.22,1.02-.43,2.06-.63,3.09-.15.73-.3,1.45-.44,2.18-.3,1.48-.59,2.97-.88,4.46-.19,1.01-.39,2.01-.58,3.03-.14.73-.27,1.44-.41,2.17-.97,5.17-1.89,10.4-2.76,15.68-.18,1.06-.35,2.12-.52,3.19-.18,1.09-.35,2.19-.52,3.28-.46,2.86-.89,5.74-1.32,8.64-.49,3.39-.97,6.81-1.44,10.25-.14,1.03-.28,2.09-.41,3.13-.11.82-.22,1.64-.31,2.47-.51,4-1,8.03-1.46,12.08-.15,1.34-.31,2.7-.45,4.05-.13,1.12-.25,2.25-.37,3.38-.31,2.95-.6,5.92-.89,8.9-.26,2.75-.51,5.49-.75,8.26-.1,1.12-.19,2.23-.28,3.36-.72,8.6-1.31,17.28-1.79,26.06-.08,1.41-.15,2.82-.22,4.24-.09,1.7-.17,3.4-.24,5.11-.15,3.39-.29,6.81-.41,10.23-.07,2.06-.14,4.12-.2,6.2-.03,1.02-.05,2.03-.08,3.05-.05,2.07-.1,4.14-.14,6.22-.04,1.88-.07,3.75-.09,5.63,0,.31,0,.63,0,.94-.02,1.24-.04,2.48-.04,3.71,0,1.07-.02,2.16-.02,3.24,0,1.75-.02,3.5-.02,5.25,0,2.63,0,5.25.04,7.87,0,1.32.02,2.62.04,3.93,0,1.32.03,2.63.05,3.95.02,1.15.04,2.3.06,3.45.03,1.43.05,2.86.09,4.29.03,1.4.06,2.8.11,4.21.03,1.16.06,2.31.11,3.45.04,1.44.09,2.88.14,4.31.05,1.69.12,3.37.19,5.06.08,2.05.17,4.1.27,6.14.09,1.9.19,3.8.29,5.7.17,3.27.37,6.54.58,9.79.09,1.5.19,3,.3,4.49.07,1.13.15,2.26.23,3.38.12,1.67.24,3.35.38,5.01.14,1.88.29,3.73.45,5.6.15,1.86.32,3.71.48,5.57.16,1.85.33,3.69.51,5.54.3,3.07.6,6.12.93,9.17.32,3.04.66,6.06,1.01,9.07.35,3.03.71,6.03,1.09,9.03.16,1.23.31,2.45.48,3.66.22,1.74.46,3.48.7,5.21.16,1.22.33,2.44.5,3.65.74,5.21,1.52,10.38,2.35,15.5.14.91.29,1.82.44,2.72.23,1.44.48,2.87.72,4.3,1.27,7.48,2.63,14.86,4.09,22.12.27,1.38.55,2.76.83,4.13.63,3.04,1.27,6.06,1.93,9.06.31,1.45.64,2.89.96,4.33.32,1.44.65,2.87.98,4.3.27,1.17.54,2.33.82,3.49.49,2.06.98,4.1,1.49,6.14.32,1.32.65,2.62.98,3.93,1.32,5.22,2.69,10.37,4.1,15.42.48,1.69.95,3.37,1.43,5.05.31,1.07.63,2.15.94,3.22,1.89,6.4,3.85,12.67,5.89,18.79.23.72.47,1.42.71,2.13.56,1.66,1.12,3.31,1.69,4.95.27.78.54,1.56.82,2.33.54,1.55,1.1,3.08,1.66,4.61.27.76.55,1.53.84,2.28.28.76.56,1.52.85,2.27,1.12,3.02,2.28,6,3.45,8.92.59,1.47,1.17,2.92,1.76,4.36.52,1.27,1.04,2.52,1.57,3.77.67,1.61,1.36,3.19,2.04,4.77.6,1.4,1.22,2.79,1.84,4.17.61,1.38,1.24,2.76,1.87,4.11.31.68.62,1.35.94,2.02.62,1.34,1.26,2.68,1.91,4,.64,1.32,1.28,2.64,1.94,3.94.31.65.64,1.3.97,1.94.65,1.29,1.31,2.56,1.97,3.83.32.64.66,1.27,1,1.9.32.63.66,1.25,1,1.87.26.5.52.99.8,1.48.13.26.28.53.43.79.25.47.51.95.78,1.42.33.61.67,1.22,1.02,1.82.33.6.67,1.2,1.03,1.8.74,1.3,1.49,2.58,2.25,3.86.28.48.56.96.85,1.43.34.58.69,1.16,1.04,1.73.34.57.69,1.14,1.05,1.7.88,1.43,1.77,2.83,2.68,4.23.38.6.76,1.18,1.15,1.77,4.54,6.88,9.22,13.27,14.04,19.11.53.66,1.07,1.3,1.62,1.93,1.27,1.5,2.54,2.96,3.83,4.38.36.41.72.8,1.09,1.2,2.38,2.57,4.78,5.02,7.21,7.33.63.61,1.27,1.2,1.92,1.79,2.01,1.85,4.04,3.61,6.08,5.26.39.31.76.62,1.14.91,1.96,1.57,3.93,3.04,5.92,4.41.27.19.54.38.8.55.63.44,1.27.86,1.9,1.27.54.36,1.08.7,1.63,1.03.16.11.32.21.49.31.59.37,1.2.73,1.8,1.08.58.35,1.16.69,1.75,1.02.86.47,1.7.94,2.56,1.38.58.3,1.16.59,1.74.88.79.39,1.57.76,2.37,1.12.5.23,1,.46,1.5.68,2.21.97,4.43,1.83,6.67,2.57.67.23,1.35.45,2.02.66.5.15,1,.3,1.5.44.35.11.69.2,1.04.29.65.18,1.31.35,1.95.5.46.12.93.22,1.39.32.24.06.49.12.74.16.04,0,.07.02.11.02.59.13,1.18.24,1.77.35.71.14,1.42.25,2.13.37h0c.72.11,1.43.2,2.15.29.72.09,1.44.16,2.16.23.72.07,1.44.13,2.16.16.66.04,1.32.08,1.98.1.15,0,.3,0,.45,0Z"/>
    <g>
      <rect class="cls-1" x="479.36" y="314.28" width="16.02" height="25.88" rx="8.01" ry="8.01" transform="translate(-88.07 211.16) rotate(-22.47)"/>
      <rect class="cls-1" x="422.48" y="443.69" width="16.02" height="25.88" rx="8.01" ry="8.01" transform="translate(574.96 -154.07) rotate(56.62)"/>
      <rect class="cls-1" x="443.32" y="587.75" width="16.02" height="25.88" rx="8.01" ry="8.01" transform="translate(1197.21 510.17) rotate(120)"/>
      <rect class="cls-1" x="475.77" y="738.32" width="16.02" height="25.88" rx="8.01" ry="8.01" transform="translate(860.37 1561.59) rotate(-172.15)"/>
    </g>
  </g>
  <g id="Layer_1_copy" data-name="Layer 1 copy">
    <g>
      <path class="cls-1" d="M578.92,921.42c-99.35-22.16-183.97-83.42-236.86-166.78,14.67-21.92,35.44-29.72,56.25-30.71.31.79.63,1.58.95,2.36.3.75.6,1.49.91,2.23.56,1.36,1.13,2.72,1.7,4.07.96,2.29,1.95,4.54,2.95,6.79.34.76.68,1.51,1.03,2.27.42.94.85,1.88,1.29,2.82.61,1.35,1.24,2.68,1.87,4.01.64,1.34,1.28,2.66,1.93,3.99.51,1.04,1.03,2.09,1.55,3.12.51,1.04,1.03,2.07,1.57,3.11.45.89.9,1.77,1.36,2.66.06.13.13.26.2.39.55,1.04,1.09,2.08,1.64,3.11.58,1.07,1.15,2.14,1.73,3.21.69,1.27,1.39,2.55,2.1,3.81.71,1.27,1.42,2.53,2.14,3.78.66,1.15,1.32,2.3,2,3.44.17.3.35.61.53.91.02.04.04.08.07.13.53.91,1.07,1.81,1.61,2.7.64,1.06,1.28,2.12,1.94,3.19.41.68.84,1.37,1.27,2.04.44.72.88,1.42,1.33,2.13.14.22.27.43.41.65.58.92,1.16,1.83,1.75,2.74.29.44.58.87.86,1.31.58.9,1.18,1.79,1.77,2.68.57.86,1.13,1.7,1.72,2.55.13.22.29.42.43.64.22.33.44.67.68,1,.58.85,1.16,1.68,1.75,2.52.17.24.34.49.52.75.59.85,1.19,1.68,1.78,2.51.27.38.54.76.81,1.13.54.76,1.09,1.5,1.63,2.24.25.35.51.7.77,1.05.7.95,1.41,1.9,2.12,2.84.79,1.05,1.59,2.1,2.39,3.14.09.12.18.24.29.37.29.38.59.76.88,1.13.33.44.68.86,1.02,1.3.11.13.22.28.32.41.13.17.27.35.42.53.59.76,1.21,1.53,1.82,2.29.36.45.73.91,1.11,1.36.69.86,1.39,1.7,2.1,2.55.88,1.06,1.77,2.11,2.66,3.17.89,1.05,1.79,2.09,2.69,3.12.91,1.04,1.81,2.07,2.73,3.09.91,1.02,1.83,2.03,2.75,3.04,0,0,0,0,0,0,29.13,41.04,66.21,69.76,108.76,81.11Z"/>
      <path class="cls-1" d="M391.5,706.05c-20.81.99-41.58,8.78-56.25,30.71-37.14-58.52-58.64-127.93-58.64-202.37,0-65.1,16.44-126.36,45.41-179.85-7.16,13.91-2.23,98.43,24.77,128.37,4.36,4.83,9.12,8.85,14.17,12.14-.05.68-.11,1.37-.15,2.05-.09,1.12-.18,2.26-.25,3.39,0,.19-.03.39-.04.58,0,.14-.02.27-.03.41-.06.86-.12,1.71-.17,2.57v.04c-.03.4-.05.8-.07,1.2,0,.06,0,.12,0,.18-.08,1.27-.15,2.54-.22,3.81,0,.27-.03.55-.04.82-.08,1.61-.15,3.21-.22,4.82-.26,6.45-.39,12.94-.39,19.47,0,3.1.03,6.17.09,9.25.03,1.53.06,3.07.11,4.6.02.79.04,1.58.07,2.37,0,.16,0,.32.02.49.03.92.06,1.84.1,2.76,0,.07,0,.14,0,.22.05,1.11.09,2.21.14,3.32.02.32.03.64.04.95.02.36.04.73.06,1.09.05,1.2.12,2.4.19,3.59.02.34.04.67.06,1.02.06,1.09.14,2.17.21,3.25.05.83.11,1.65.17,2.47.04.69.1,1.39.15,2.07.06.88.14,1.76.21,2.65.06.76.13,1.5.2,2.26,0,.09,0,.17.02.26.05.64.12,1.28.17,1.91.09.94.18,1.9.27,2.84.04.45.09.9.13,1.36,0,.12.03.22.04.34.08.77.15,1.54.24,2.3.1,1.02.22,2.03.32,3.05.03.24.05.5.09.74.12,1.08.24,2.16.38,3.24.09.76.19,1.53.29,2.29.1.78.2,1.57.3,2.35.02.16.04.32.06.49.13,1.02.27,2.03.41,3.04.03.19.05.37.08.56.09.71.2,1.42.31,2.13.14,1.03.3,2.05.45,3.08.36,2.43.75,4.85,1.15,7.26.14.86.29,1.71.44,2.56.03.2.06.4.11.59.2,1.21.41,2.42.64,3.63.11.6.22,1.21.33,1.81.12.59.22,1.2.34,1.8.24,1.29.49,2.56.75,3.84,0,.02,0,.04,0,.05,0,0,0,.03,0,.04.29,1.47.59,2.93.9,4.39.08.41.17.8.25,1.21.03.11.04.22.07.32.22,1.06.45,2.11.68,3.16.36,1.64.73,3.26,1.1,4.88.02.04.03.1.04.14.34,1.49.7,2.97,1.06,4.46.16.69.33,1.38.5,2.05.16.68.34,1.37.51,2.05.11.44.22.88.33,1.31.22.86.44,1.71.67,2.56.27,1.04.55,2.08.83,3.11.56,2.07,1.12,4.14,1.72,6.19.3,1.03.59,2.06.89,3.08.3,1.03.6,2.05.91,3.07.26.88.53,1.76.8,2.65.56,1.8,1.12,3.58,1.69,5.36.35,1.11.71,2.21,1.08,3.3.47,1.42.94,2.83,1.42,4.23.47,1.39.95,2.76,1.44,4.14.31.88.62,1.76.94,2.65.45,1.28.92,2.55,1.39,3.82.46,1.27.94,2.53,1.42,3.79.04.07.06.15.09.22.33.9.68,1.8,1.04,2.69.38.97.76,1.93,1.14,2.91Z"/>
      <path class="cls-1" d="M653.01,117.78c-.33,0-.66,0-.98.03-.31,0-.61,0-.91.02-.33,0-.66.02-.98.03-.11,0-.21,0-.31,0-1.19.04-2.38.08-3.56.14-.29,0-.57.03-.86.04-.09,0-.19,0-.28.02-.49.03-.97.04-1.45.08-.08,0-.16,0-.24.02-.13,0-.25,0-.38.02-.04,0-.07,0-.11,0h-.06c-.12,0-.22,0-.32.02-.45.04-.91.06-1.36.1-.55.04-1.1.07-1.65.12-.06,0-.12,0-.17,0-.61.05-1.21.09-1.82.15-.13,0-.27.02-.4.04-.08,0-.15,0-.23.02-.25.02-.49.04-.74.06-.22.02-.43.04-.65.06-.22,0-.42.04-.64.06h-.04c-.31.03-.61.06-.92.09-.44.04-.88.08-1.32.13-.02,0-.04,0-.06,0-.23.02-.47.04-.7.07-.56.06-1.12.13-1.68.19-.23.03-.47.05-.7.09-.09,0-.18.03-.26.04-.04,0-.08,0-.12,0-.05,0-.1,0-.15.02-.32.04-.65.07-.96.12-.56.07-1.12.14-1.67.22-.49.06-.99.13-1.48.21-.57.07-1.13.15-1.7.24-.05,0-.11,0-.16.03-.03,0-.05,0-.08,0h-.03s-.08,0-.12.02c0,0,0,0,0,0h0s-.03,0-.04,0h-.02s-.05,0-.08,0c-.23.04-.47.07-.7.11-.23.03-.47.06-.69.11-.04,0-.1.02-.14.03-.3.04-.59.08-.88.14-.28.04-.56.09-.84.13-.02,0-.04,0-.05,0-.28.04-.56.09-.84.14-.17.04-.34.06-.51.09-.11.03-.21.04-.31.06s-.22.04-.31.05c-.11,0-.22.03-.32.05-.21.03-.41.07-.62.11-.08,0-.15.02-.23.04-.11.02-.22.04-.32.06-.05,0-.12.03-.17.04s-.11.02-.16.03c-.15.02-.31.04-.45.08-.57.1-1.13.21-1.7.31-.38.07-.75.14-1.12.22-.09.02-.18.04-.26.05-.39.07-.77.15-1.16.23-.65.14-1.3.27-1.94.41-.13.03-.26.05-.39.08-1.13.24-2.28.49-3.41.76-.78.17-1.56.36-2.32.55-.19.04-.39.09-.58.14-.19.04-.38.09-.57.14-.34.09-.69.18-1.04.27-.22.05-.43.1-.65.15-.08.03-.16.04-.24.06-.56.14-1.12.29-1.68.43-.95.25-1.91.5-2.86.77-.14.04-.29.08-.43.12-.75.2-1.48.41-2.23.63-.31.08-.6.17-.91.26-.05.02-.11.03-.16.04-.41.12-.84.24-1.25.38-.17.04-.34.1-.51.15-.48.14-.95.29-1.43.43-.28.08-.55.17-.83.26-.17.04-.33.1-.5.16-.57.17-1.12.35-1.68.53-.06.02-.13.04-.18.06-.09.03-.18.05-.27.08-.15.04-.31.09-.45.14-.49.16-.98.32-1.47.49-.31.1-.61.2-.92.31-.12.04-.23.07-.35.12-.41.14-.82.27-1.22.41-.12.04-.23.08-.35.13-.22.07-.46.15-.68.24-.44.14-.87.3-1.31.46-.2.06-.4.14-.58.21-.56.2-1.12.4-1.67.6-.19.06-.38.13-.56.21-.41.15-.83.31-1.24.47-.8.3-1.59.59-2.38.91h0c-.16.06-.32.13-.49.19-.72.28-1.44.57-2.16.86-.03,0-.05.02-.08.03-.03,0-.04.02-.07.03-.59.23-1.19.48-1.77.73-.3.12-.59.24-.9.37-.14.05-.26.1-.39.16-.54.22-1.09.46-1.64.69-.68.29-1.36.58-2.02.87-.67.29-1.34.58-2.01.89-.23.1-.47.2-.69.31-.14.06-.28.13-.41.19-.2.09-.39.18-.58.26-.77.34-1.52.69-2.28,1.05-.14.06-.28.13-.42.2-.87.41-1.75.83-2.62,1.25-.15.07-.3.14-.45.22-.57.28-1.13.56-1.69.84-.52.25-1.04.51-1.56.77-.59.31-1.19.6-1.77.91-.3.14-.6.3-.9.46-.02,0-.03.02-.04.03-.06.04-.13.06-.19.09-.18.1-.37.2-.56.29-.41.22-.83.43-1.24.67-.05.02-.08.04-.13.06-.03.02-.05.03-.08.04t-.02,0l-.05.03s-.03,0-.04.02c-.04.02-.08.04-.12.06-.04.02-.06.04-.1.05-.03,0-.05.03-.09.04-.04.03-.06.05-.1.05,0,0,0,0,0,0-.27.14-.54.28-.81.43-.59.32-1.19.65-1.78.97-.51.27-1.02.55-1.52.84-.31.17-.6.33-.9.5-.54.3-1.08.6-1.61.91-.12.06-.24.14-.36.21-.79.46-1.58.92-2.38,1.39-.12.06-.23.13-.34.2-.22.13-.44.25-.66.39-.48.28-.96.57-1.44.86-.04.03-.08.05-.13.08-.02,0-.04.03-.06.04-.05.03-.09.05-.14.08-.37.21-.74.43-1.11.67-.72.44-1.44.88-2.15,1.32-.14.08-.25.15-.38.23-.24.15-.49.31-.73.46-.6.38-1.2.76-1.79,1.13-.24.15-.49.31-.73.47-.54.34-1.07.69-1.61,1.04-.3.19-.59.39-.88.59-.12.07-.23.15-.35.23-.02,0-.04.03-.05.04-.04.03-.1.06-.14.09-.31.2-.61.41-.92.61-.32.21-.63.42-.94.64-.13.07-.24.15-.36.24-.26.17-.53.35-.79.53-.48.32-.94.64-1.41.97-.06.04-.13.08-.18.13-.18.12-.36.24-.54.38-.17.12-.35.23-.52.36-.06.04-.12.07-.18.12-.4.29-.8.57-1.2.86-.07.05-.14.1-.22.15-.04.03-.07.05-.11.08-.62.43-1.24.87-1.85,1.32-.73.52-1.45,1.04-2.17,1.57-.78.58-1.57,1.16-2.34,1.75-.03.02-.06.04-.09.07-.94.71-1.89,1.42-2.83,2.15-.73.56-1.46,1.12-2.18,1.7-.22.16-.43.33-.65.5-.14.1-.27.21-.41.32-.8.64-1.6,1.28-2.39,1.93-.94.76-1.86,1.51-2.78,2.29-.11.08-.22.17-.31.26-.22.18-.45.37-.67.56-.4.33-.79.67-1.18,1-.51.43-1.03.87-1.54,1.31-.53.45-1.04.9-1.56,1.35-.07.06-.15.14-.23.2-.18.16-.35.31-.53.47-.35.3-.69.6-1.04.92-.23.21-.47.41-.69.62-.68.59-1.36,1.21-2.03,1.83-.38.33-.75.67-1.12,1.01-.33.3-.66.6-.99.91-.22.22-.46.42-.68.64-.43.4-.86.79-1.28,1.19-.68.65-1.37,1.29-2.04,1.94-.11.1-.22.2-.32.31-.67.64-1.33,1.29-2,1.94-.21.2-.42.41-.63.62-.28.26-.55.53-.83.81-.19.18-.37.37-.56.56-.41.4-.81.8-1.21,1.22-.22.22-.43.43-.65.65l-1.35,1.38c-.27.27-.54.55-.8.82-.78.81-1.57,1.62-2.34,2.44-.18.19-.36.38-.54.57-.18.18-.36.37-.53.56-.16.16-.31.33-.46.49-.08.08-.15.15-.22.23-.08.09-.16.18-.25.27-.02.02-.04.04-.05.06-.12.12-.22.22-.32.34-.05.05-.11.11-.15.16-.04.03-.06.06-.09.09-.25.27-.5.55-.75.82-.09.09-.16.17-.24.26-.1.1-.2.2-.28.31-.57.61-1.13,1.23-1.69,1.85-.07.08-.14.15-.22.23-.11.12-.22.24-.33.37-.38.42-.76.84-1.12,1.26-.17.19-.34.38-.5.57-.75.84-1.49,1.68-2.22,2.53-.18.2-.35.4-.51.59-.53.6-1.06,1.22-1.58,1.84-.19.22-.37.43-.55.65-.7.83-1.4,1.66-2.1,2.49-.04.04-.08.09-.11.13-.56.66-1.1,1.31-1.64,1.98-.14.15-.26.31-.38.47-.08.09-.14.18-.22.27-.19.22-.35.42-.51.63-.36.43-.71.86-1.06,1.31-.13.16-.26.32-.4.49-.14.17-.28.34-.4.51-.17.21-.33.41-.5.62-.27.33-.53.67-.79,1-.41.5-.8,1.02-1.19,1.52-.4.5-.78,1.01-1.17,1.51-.07.09-.13.17-.2.26-.25.32-.5.65-.76.97-.06.08-.13.16-.19.25-.57.75-1.13,1.49-1.69,2.24-.52.7-1.05,1.4-1.57,2.11-.43.59-.86,1.17-1.29,1.75-.13.18-.26.36-.39.54-.09.12-.17.22-.25.34-.49.67-.98,1.35-1.46,2.03-.04.06-.09.12-.13.18-.74,1.04-1.47,2.07-2.2,3.11,0,0-.02,0,0,.02-.23.33-.47.67-.69,1-.45.64-.89,1.29-1.33,1.93-.05.07-.11.15-.15.22-.48.7-.95,1.4-1.42,2.11-.3.43-.58.87-.87,1.31-.35.52-.7,1.05-1.04,1.57-.31.48-.63.95-.94,1.43-.67,1.01-1.32,2.02-1.97,3.05-.35.55-.7,1.11-1.04,1.66-.21.32-.41.65-.61.97-.31.49-.61.96-.9,1.45-.97,1.56-1.93,3.12-2.87,4.7-.09.14-.18.3-.27.45,0,.03-.03.04-.04.07-.03.04-.04.07-.06.11-.02.03-.04.06-.05.09-.06.1-.13.19-.18.29-.03.04-.04.08-.07.12-.04.06-.07.13-.11.18-.06.11-.13.22-.19.32-.1.17-.21.33-.3.5-.05.08-.1.17-.14.25-.05.06-.08.13-.12.19-.27.45-.54.91-.8,1.36-.15.26-.31.53-.47.8-.18.31-.35.61-.53.92-.44.77-.88,1.54-1.32,2.3-.31.55-.62,1.1-.93,1.65-.15.27-.31.54-.46.81-.2.36-.4.72-.59,1.08-.41.75-.83,1.49-1.23,2.24-.02.04-.04.08-.06.12,0,0,0,.03-.02.04-.11.19-.21.37-.31.56-.02.03-.04.06-.05.09-.02.03-.04.05-.04.08-.07.13-.14.25-.22.39,0,0,0,.02,0,.03-.04.09-.09.17-.14.25-.04.09-.09.17-.13.26-.28.51-.55,1.03-.83,1.53-.03.05-.05.11-.08.16-.61,1.15-1.22,2.3-1.82,3.46,0,.02-.02.03-.03.04-.04.07-.08.15-.12.23-.02.03-.03.04-.04.07-.4.76-.8,1.53-1.19,2.3,0,0,0,0,0,0-.04.09-.09.17-.14.26-.13.24-.24.48-.37.72-.16.31-.32.61-.47.93-.15.3-.31.59-.45.9-.39.76-.76,1.52-1.14,2.29-.18.36-.35.72-.53,1.08-.18.37-.36.74-.54,1.12-.37.76-.74,1.52-1.11,2.29-.36.76-.72,1.5-1.07,2.26-.31.66-.62,1.31-.93,1.98-.41.88-.81,1.76-1.22,2.65-.09.2-.19.41-.28.61-.32.71-.65,1.42-.96,2.13-.06.15-.13.3-.2.45-.13.26-.24.52-.35.79-.32.71-.63,1.43-.94,2.14-.05.11-.11.22-.15.34-.03.05-.05.12-.07.18,0,0,0,.03-.02.04-.1.22-.2.43-.28.65-.22.5-.43,1-.65,1.5-.05.1-.09.21-.14.31-.29.67-.58,1.34-.86,2.02-.23.55-.47,1.11-.69,1.67-.16.39-.32.77-.49,1.16-.42,1.04-.85,2.07-1.26,3.11-.38.92-.74,1.84-1.1,2.75-.05.13-.11.24-.15.37-.28.69-.55,1.39-.82,2.09-.05.11-.08.21-.12.32-.35.9-.7,1.81-1.04,2.72-.04.11-.08.21-.12.32-.25.65-.49,1.3-.73,1.94-.03.05-.04.11-.06.16-.3.79-.59,1.58-.88,2.39-.02.04-.04.1-.05.15-.16.42-.31.85-.46,1.27-.31.86-.63,1.74-.94,2.61-.21.58-.41,1.16-.61,1.74-.19.52-.37,1.05-.55,1.58-.05.14-.11.29-.15.43-.04.14-.1.29-.14.43-.03.07-.04.13-.07.2,0,.03-.03.06-.04.09-.04.1-.06.21-.1.31-.13.37-.25.74-.38,1.11-.19.55-.37,1.09-.55,1.64-.14.38-.26.77-.38,1.14-.15.45-.3.89-.44,1.33-.2.59-.39,1.17-.58,1.76-.04.11-.07.22-.1.32-.08.22-.14.43-.22.66-.18.55-.35,1.1-.52,1.65-.06.18-.12.35-.17.53-.06.22-.14.42-.2.64-.35,1.12-.7,2.25-1.04,3.37-.17.56-.34,1.12-.5,1.68-.13.41-.25.83-.38,1.24-.03.08-.05.17-.08.26-.03.1-.05.19-.08.29-.02.06-.04.14-.05.2-.02.05-.04.11-.04.16-.02.04-.03.08-.04.12-.09.28-.17.57-.25.85-.15.54-.31,1.07-.47,1.61-.17.58-.33,1.16-.49,1.75-.13.45-.25.89-.38,1.33-.13.45-.25.9-.38,1.34-.09.32-.17.64-.26.95-.07.25-.13.49-.21.75-.15.57-.31,1.13-.46,1.71-.16.58-.31,1.17-.47,1.75-.39,1.47-.76,2.93-1.14,4.41-.04.16-.09.33-.13.5-.02.04-.03.1-.04.14-.3,1.17-.59,2.34-.87,3.52-.03.08-.04.17-.06.26-.17.7-.34,1.4-.5,2.11-.19.76-.36,1.51-.54,2.27-.32,1.41-.65,2.83-.96,4.25-.03.11-.04.21-.07.31-.08.39-.17.77-.25,1.17-.2.9-.4,1.8-.59,2.7-.04.21-.09.41-.13.63-.25,1.19-.5,2.38-.74,3.56,0,.05-.03.11-.04.16-.13.63-.25,1.25-.37,1.88-.05.23-.1.48-.14.72-.18.91-.36,1.82-.53,2.74-.15.77-.3,1.53-.43,2.3-.14.76-.29,1.51-.41,2.27-.22,1.2-.43,2.39-.64,3.59-.02.12-.04.24-.06.36-.15.91-.31,1.81-.45,2.71-.05.29-.1.59-.14.87-.03.16-.05.32-.07.48,0,.02,0,.04,0,.04,0,.04-.02.06-.02.09,0,.04-.02.09-.02.13-.25,1.53-.49,3.05-.72,4.58-.11.66-.21,1.3-.3,1.96-.02.13-.04.28-.06.41-.02.11-.04.22-.04.33-.14.96-.28,1.93-.41,2.9,0,.04-.02.1-.02.15-.06.4-.12.79-.17,1.19-.05.44-.12.88-.17,1.32-.1.67-.18,1.34-.27,2.01-.04.28-.07.55-.11.83-.08.66-.16,1.31-.24,1.98-.07.61-.15,1.22-.22,1.84-.07.61-.14,1.22-.22,1.84-.12.96-.22,1.93-.33,2.91-.12,1.1-.23,2.2-.34,3.29-.21,1.94-.4,3.89-.57,5.84-.13,1.48-.25,2.94-.38,4.42-5.06-3.29-9.82-7.31-14.17-12.14-27-29.93-31.93-114.45-24.77-128.37,63.31-116.91,186.43-196.69,328.33-198.34Z"/>
      <path class="cls-1" d="M985,227.3c-24.16-1.24-98.74,9-153.66,34.52-45.03,20.92-91.43,48.17-167.63,102.72-46.42,33.24-71.85,52.67-119.51,77.78.07-1.31.14-2.63.22-3.94.48-8.17,1.07-16.25,1.79-24.26.09-1.04.18-2.08.28-3.12.23-2.57.49-5.13.75-7.69.29-2.77.59-5.53.89-8.28.12-1.05.24-2.11.37-3.15.14-1.26.3-2.52.45-3.77.46-3.77.94-7.52,1.46-11.24.1-.76.21-1.53.31-2.29.14-.97.28-1.95.41-2.92.47-3.2.94-6.38,1.44-9.54.43-2.7.86-5.38,1.32-8.05.17-1.02.34-2.03.52-3.05.17-1,.34-1.98.52-2.97.87-4.91,1.79-9.78,2.76-14.6.14-.67.27-1.34.41-2.02.19-.94.39-1.88.58-2.82.29-1.39.58-2.77.88-4.15.14-.67.29-1.35.44-2.02.2-.96.41-1.93.63-2.88.86-3.84,1.74-7.64,2.65-11.41.31-1.27.61-2.53.93-3.78.14-.58.29-1.15.43-1.72.28-1.12.56-2.22.85-3.32,1.18-4.57,2.39-9.09,3.66-13.54.24-.89.5-1.79.76-2.67.22-.78.46-1.57.68-2.35.37-1.27.75-2.53,1.12-3.79.34-1.14.69-2.29,1.04-3.42.31-1.02.62-2.02.95-3.03,1.28-4.06,2.58-8.06,3.93-12.01.28-.83.57-1.66.86-2.48.83-2.38,1.66-4.73,2.51-7.07.32-.89.65-1.77.98-2.65.36-.97.72-1.94,1.09-2.91.73-1.94,1.48-3.85,2.22-5.74.37-.94.75-1.89,1.12-2.83.38-.94.76-1.88,1.14-2.81.38-.93.77-1.85,1.15-2.77.39-.93.77-1.85,1.16-2.75,1.57-3.65,3.16-7.24,4.79-10.75.38-.83.76-1.66,1.16-2.47,2.29-4.85,4.64-9.56,7.05-14.12.41-.78.83-1.57,1.24-2.34,5.89-10.93,12.11-20.97,18.62-30.04.84-1.16,1.67-2.31,2.52-3.44.89-1.2,1.79-2.38,2.69-3.54.42-.53.84-1.06,1.27-1.59.3-.39.6-.77.92-1.15.47-.58.94-1.16,1.41-1.74,1.5-1.82,3.02-3.59,4.55-5.3.49-.57,1-1.12,1.5-1.67.02-.02.04-.04.04-.05.45-.49.89-.97,1.35-1.45.43-.47.87-.94,1.31-1.39.44-.47.89-.93,1.33-1.39,1.45-1.48,2.91-2.92,4.37-4.3.57-.54,1.13-1.07,1.71-1.59.63-.58,1.25-1.14,1.88-1.7,0,0,.03-.02.05-.04.59-.53,1.2-1.05,1.8-1.57,1.19-1.02,2.38-2.01,3.59-2.96.54-.43,1.08-.85,1.63-1.28.55-.42,1.09-.84,1.64-1.24.54-.41,1.08-.8,1.63-1.19,1.66-1.2,3.32-2.33,4.99-3.41.44-.28.87-.56,1.31-.83.78-.5,1.57-.97,2.37-1.43.39-.23.77-.46,1.17-.67,1.76-1.02,3.55-1.96,5.33-2.84.57-.28,1.12-.55,1.69-.81.46-.22.93-.43,1.39-.64.23-.12.47-.22.7-.31.38-.17.76-.33,1.13-.49.15-.06.31-.13.46-.19,1.65-.69,3.31-1.32,4.98-1.9.5-.18,1.02-.35,1.53-.51.07-.03.14-.05.22-.07,0,0,0,0,.02,0,10.19-2.26,20.49-3.55,30.86-3.81,7.56.13,15.07.48,22.51,1.05,95.91,7.33,181.81,50.43,244.39,115.97Z"/>
      <path class="cls-1" d="M1078.5,519.52c0,1.51,0,3.02-.03,4.53-80.92,46.88-166.62,81.28-542.33,80.87-.18-1.72-.35-3.44-.51-5.16-.16-1.73-.32-3.46-.48-5.18-.15-1.74-.31-3.47-.45-5.21-.13-1.55-.26-3.11-.38-4.66-.08-1.04-.16-2.1-.23-3.15-.11-1.39-.21-2.78-.3-4.18-.21-3.02-.41-6.07-.58-9.11-.1-1.77-.2-3.54-.29-5.31-.1-1.9-.19-3.81-.27-5.72-.07-1.57-.14-3.13-.19-4.71-.05-1.33-.11-2.67-.14-4.01-.05-1.06-.08-2.13-.11-3.21-.05-1.3-.08-2.61-.11-3.91-.04-1.33-.06-2.66-.09-4-.03-1.07-.04-2.14-.06-3.21-.03-1.23-.04-2.46-.05-3.68-.02-1.22-.03-2.43-.04-3.65-.03-2.44-.04-4.88-.04-7.33,0-1.63,0-3.26.02-4.89,0-1.01,0-2.02.02-3.02,0-1.15.03-2.3.04-3.46,0-.29,0-.59,0-.87.02-1.75.05-3.49.09-5.24.04-1.93.08-3.86.14-5.79.03-.94.05-1.89.08-2.83.05-1.94.13-3.85.2-5.77.12-3.19.25-6.36.41-9.52.07-1.58.15-3.17.24-4.75,47.66-25.11,73.09-44.54,119.51-77.78,76.2-54.55,122.61-81.8,167.63-102.72,54.92-25.52,129.5-35.76,153.66-34.52,64.83,67.9,104.62,159.88,104.62,261.14Z"/>
      <path class="cls-1" d="M1083.21,558.33c-6.73,115.11-64.42,215.43-150.05,279.99,0,0-.02,0-.03.02-18.57,10.55-65.49,19.8-117.43,15.38-53.76-4.56-149.26-45.16-193.81-72.72-26.01-16.09-45.5-28.69-65.7-40.32-1.19-4.77-2.33-9.61-3.43-14.53-.28-1.23-.54-2.46-.81-3.7-.41-1.92-.82-3.84-1.22-5.78-.23-1.09-.45-2.18-.67-3.28-.27-1.35-.53-2.69-.79-4.05-.26-1.35-.52-2.71-.77-4.07-.53-2.82-1.03-5.66-1.53-8.51-.22-1.29-.44-2.58-.65-3.88-1.14-6.82-2.18-13.74-3.12-20.76-.18-1.34-.36-2.68-.53-4.03-.11-.84-.22-1.7-.32-2.55-.6-4.79-1.16-9.64-1.67-14.52-.12-1.13-.24-2.27-.35-3.41-.17-1.62-.33-3.25-.47-4.88-.11-1.14-.21-2.28-.32-3.43-.25-2.8-.48-5.62-.7-8.45-.22-2.81-.43-5.64-.61-8.48-.19-2.85-.36-5.7-.53-8.57,375.29,17.94,462.5-12.42,545.51-55.47Z"/>
      <path class="cls-1" d="M934.14,884.53c-70.97,46.97-158.11,70.38-249.32,60.49-.64-.07-1.27-.15-1.9-.23-.15-.02-.29-.04-.45-.06-.65-.09-1.31-.2-1.96-.3-.71-.11-1.42-.24-2.13-.38-.71-.14-1.42-.29-2.12-.45-.71-.16-1.4-.32-2.11-.5h0c-.7-.18-1.39-.37-2.08-.57-.58-.16-1.16-.33-1.73-.51-.04,0-.07-.02-.11-.03-.24-.07-.48-.15-.72-.23-.45-.14-.9-.29-1.35-.44-.63-.21-1.27-.44-1.89-.68-.34-.12-.67-.24-1.01-.38-.49-.18-.97-.37-1.45-.56-.65-.26-1.3-.54-1.95-.83-2.15-.93-4.28-1.97-6.37-3.1-.48-.26-.96-.52-1.43-.79-.75-.42-1.49-.85-2.24-1.29-.54-.33-1.1-.66-1.64-1-.81-.5-1.6-1.02-2.4-1.55-.55-.37-1.1-.74-1.63-1.13-.56-.39-1.13-.79-1.68-1.2-.16-.11-.31-.22-.46-.34-.51-.37-1.01-.74-1.52-1.13-.59-.44-1.18-.91-1.76-1.38-.24-.19-.49-.39-.74-.6-1.84-1.48-3.65-3.06-5.45-4.72-.35-.31-.69-.64-1.05-.96-1.87-1.75-3.71-3.6-5.52-5.52-.59-.62-1.16-1.23-1.73-1.86-2.18-2.4-4.33-4.92-6.43-7.56-.33-.41-.65-.81-.96-1.23-1.15-1.45-2.26-2.94-3.37-4.47-.48-.65-.95-1.3-1.42-1.96-4.21-5.92-8.22-12.33-12.04-19.19-.33-.59-.65-1.18-.97-1.76-.76-1.39-1.51-2.78-2.24-4.2-.3-.56-.59-1.12-.88-1.69-.29-.57-.58-1.14-.86-1.71-.25-.47-.48-.94-.71-1.42-.62-1.26-1.25-2.53-1.85-3.81-.29-.59-.57-1.18-.84-1.77-.28-.59-.56-1.19-.83-1.79-.22-.47-.43-.93-.64-1.4-.13-.26-.24-.52-.35-.78-.23-.49-.44-.96-.65-1.46-.28-.61-.55-1.22-.81-1.83-.28-.62-.55-1.24-.8-1.86-.54-1.24-1.06-2.5-1.58-3.76-.27-.64-.52-1.27-.77-1.9-.52-1.27-1.03-2.56-1.53-3.85-.51-1.3-1.01-2.6-1.5-3.91-.26-.65-.5-1.31-.74-1.97-.49-1.33-.97-2.66-1.45-4-.47-1.34-.95-2.69-1.42-4.06-.52-1.53-1.04-3.07-1.55-4.63-.39-1.21-.79-2.43-1.18-3.66-.45-1.4-.88-2.8-1.32-4.23-.87-2.84-1.72-5.72-2.53-8.63-.21-.73-.41-1.46-.61-2.19-.21-.73-.41-1.47-.6-2.2-.4-1.47-.79-2.96-1.18-4.45-.2-.75-.39-1.49-.58-2.24-.4-1.58-.8-3.16-1.19-4.76-.17-.68-.33-1.36-.49-2.05-1.41-5.88-2.73-11.89-3.97-18.02-.21-1.03-.41-2.05-.62-3.08-.31-1.6-.61-3.21-.92-4.82,19.45,12.85,38.13,26.62,63.11,44.27,42.78,30.23,135.62,76.61,188.99,84.45,51.57,7.59,98.98,1.23,118.15-8.16Z"/>
    </g>
  </g>
</svg>